<?xml version="1.0" encoding="UTF-8"?>
<svg id="katman_2" data-name="katman 2" xmlns="http://www.w3.org/2000/svg" viewBox="0 0 149.06 204.64">
  <defs>
    <style>
      .cls-1 {
        fill: #fbb03b;
      }
    </style>
  </defs>
  <g id="katman_1" data-name="katman 1">
    <g>
      <g>
        <path d="M19.2,180.51h-9.2l-1.47,4.35H2.25l8.92-24.64h6.95l8.92,24.64h-6.35l-1.47-4.35ZM17.66,175.88l-3.05-9.02-3.02,9.02h6.07Z"/>
        <path d="M42.3,184.86l-5.12-9.3h-1.44v9.3h-6v-24.64h10.07c1.94,0,3.6.34,4.97,1.02s2.39,1.61,3.07,2.79c.68,1.18,1.02,2.5,1.02,3.95,0,1.64-.46,3.1-1.39,4.39s-2.29,2.2-4.09,2.74l5.69,9.76h-6.77ZM35.73,171.31h3.72c1.1,0,1.92-.27,2.47-.81.55-.54.82-1.3.82-2.28s-.27-1.67-.82-2.21c-.55-.54-1.38-.81-2.47-.81h-3.72v6.11Z"/>
        <path d="M56.69,184.23c-1.43-.58-2.57-1.45-3.42-2.6-.85-1.15-1.3-2.53-1.35-4.14h6.39c.09.91.41,1.61.95,2.09.54.48,1.24.72,2.11.72s1.59-.2,2.11-.61c.51-.41.77-.98.77-1.7,0-.61-.21-1.11-.61-1.51-.41-.4-.91-.72-1.51-.98-.6-.26-1.45-.55-2.54-.88-1.59-.49-2.89-.98-3.9-1.47-1.01-.49-1.87-1.22-2.6-2.18-.73-.96-1.09-2.21-1.09-3.76,0-2.29.83-4.09,2.49-5.39,1.66-1.3,3.83-1.95,6.49-1.95s4.9.65,6.56,1.95,2.55,3.11,2.67,5.42h-6.49c-.05-.79-.34-1.42-.88-1.88-.54-.46-1.23-.68-2.07-.68-.73,0-1.31.19-1.75.58-.44.39-.67.94-.67,1.67,0,.8.37,1.42,1.12,1.86.75.44,1.92.92,3.51,1.44,1.59.54,2.88,1.05,3.88,1.54.99.49,1.85,1.21,2.58,2.14.73.94,1.09,2.14,1.09,3.62s-.36,2.68-1.07,3.83-1.75,2.06-3.11,2.74c-1.36.68-2.96,1.02-4.81,1.02s-3.42-.29-4.84-.88Z"/>
        <path d="M80.21,180.23h7.86v4.63h-13.86v-24.64h6v20.01Z"/>
        <path d="M106.29,180.51h-9.2l-1.47,4.35h-6.28l8.92-24.64h6.95l8.92,24.64h-6.35l-1.47-4.35ZM104.74,175.88l-3.05-9.02-3.02,9.02h6.07Z"/>
        <path d="M138.86,184.86h-6l-10.04-15.2v15.2h-6v-24.64h6l10.04,15.27v-15.27h6v24.64Z"/>
        <path class="cls-1" d="M24.15,196.66c-.21-.38-.51-.67-.89-.88-.39-.2-.84-.3-1.37-.3-.91,0-1.63.3-2.18.89-.55.6-.82,1.39-.82,2.38,0,1.06.29,1.89.86,2.48.57.59,1.36.89,2.37.89.69,0,1.27-.17,1.74-.52.48-.35.82-.85,1.04-1.51h-3.55v-2.06h6.09v2.6c-.21.7-.56,1.35-1.06,1.95s-1.13,1.09-1.89,1.46c-.76.37-1.63.56-2.59.56-1.14,0-2.15-.25-3.04-.75s-1.58-1.19-2.08-2.07c-.5-.88-.75-1.89-.75-3.03s.25-2.15.75-3.04c.5-.89,1.19-1.58,2.07-2.08.88-.5,1.89-.75,3.03-.75,1.38,0,2.54.33,3.48,1,.94.67,1.57,1.59,1.88,2.77h-3.1Z"/>
        <path class="cls-1" d="M36.16,202.49h-4.29l-.69,2.03h-2.93l4.16-11.5h3.24l4.16,11.5h-2.96l-.69-2.03ZM35.44,200.33l-1.42-4.21-1.41,4.21h2.83Z"/>
        <path class="cls-1" d="M50.94,193.02l-3.98,7.7v3.8h-2.8v-3.8l-3.98-7.7h3.18l2.23,4.82,2.21-4.82h3.15Z"/>
        <path class="cls-1" d="M57.93,204.52l-2.39-4.34h-.67v4.34h-2.8v-11.5h4.7c.91,0,1.68.16,2.32.47.64.32,1.12.75,1.43,1.3.32.55.47,1.17.47,1.84,0,.76-.22,1.45-.65,2.05-.43.6-1.07,1.03-1.91,1.28l2.65,4.55h-3.16ZM54.87,198.2h1.74c.51,0,.9-.12,1.15-.38.26-.25.38-.61.38-1.07s-.13-.78-.38-1.03c-.26-.25-.64-.38-1.15-.38h-1.74v2.85Z"/>
        <path class="cls-1" d="M65.55,193.02v11.5h-2.8v-11.5h2.8ZM63.29,191.63c-.23-.23-.34-.51-.34-.85s.11-.62.34-.86c.23-.23.51-.35.85-.35s.64.12.87.34c.23.23.34.52.34.87s-.12.62-.35.85c-.23.23-.52.34-.86.34s-.62-.11-.85-.34Z"/>
        <path class="cls-1" d="M80.6,193.02v11.5h-2.8v-6.9l-2.57,6.9h-2.26l-2.59-6.91v6.91h-2.8v-11.5h3.31l3.23,7.96,3.19-7.96h3.29Z"/>
        <path class="cls-1" d="M85.42,195.27v2.33h3.75v2.16h-3.75v2.52h4.24v2.24h-7.04v-11.5h7.04v2.24h-4.24Z"/>
        <path class="cls-1" d="M101.77,204.52h-2.8l-4.69-7.09v7.09h-2.8v-11.5h2.8l4.69,7.12v-7.12h2.8v11.5Z"/>
        <path class="cls-1" d="M110.46,204.52l-3.87-5.08v5.08h-2.8v-11.5h2.8v5.04l3.83-5.04h3.29l-4.46,5.63,4.62,5.86h-3.42Z"/>
        <path class="cls-1" d="M117.97,193.02v6.88c0,.69.17,1.22.51,1.59.34.37.83.56,1.49.56s1.16-.19,1.51-.56c.35-.37.52-.9.52-1.59v-6.88h2.8v6.86c0,1.03-.22,1.89-.66,2.6-.44.71-1.02,1.25-1.76,1.61-.74.36-1.56.54-2.47.54s-1.72-.18-2.43-.53c-.71-.35-1.28-.89-1.7-1.61-.42-.71-.62-1.59-.62-2.61v-6.86h2.8Z"/>
        <path class="cls-1" d="M129.56,202.36h3.67v2.16h-6.47v-11.5h2.8v9.34Z"/>
      </g>
      <g>
        <path class="cls-1" d="M74.53,0L0,143.14h17.49c3.84-7.38,51.75-99.38,57.04-109.54,5.54,10.63,52.98,101.74,57.04,109.54h17.49L74.53,0Z"/>
        <path class="cls-1" d="M120.96,143.14H28.1l46.43-89.17,23.19,44.53h-17.5l-5.69-10.93-20.86,40.06h41.72l-3.35-6.44h-17.51v-15.51h26.91c4.93,9.44,14.51,27.85,19.52,37.47Z"/>
      </g>
    </g>
  </g>
</svg>