<?xml version="1.0" encoding="UTF-8"?>
<svg id="katman_2" data-name="katman 2" xmlns="http://www.w3.org/2000/svg" viewBox="0 0 103.11 201.37">
  <defs>
    <style>
      .cls-1 {
        fill: #fff;
      }

      .cls-2 {
        fill: #fbb03b;
      }
    </style>
  </defs>
  <g id="katman_1" data-name="katman 1">
    <g>
      <g id="katman_1-2" data-name="katman 1">
        <g>
          <circle class="cls-2" cx="49.65" cy="72.05" r="19.73"/>
          <path class="cls-2" d="M87.23,66.97v46.51h-16.2l-4.73-4.73c-3.25,1.85-9.16,4.59-16.87,4.73-15.9.3-26.31-10.7-28.12-12.67L0,121.35c4.19,4.5,22.16,22.78,49.43,23.26,6.35.11,22.64.39,36.68-11.39,3.26-2.74,16.87-14.15,17-33.2.14-19.47-13.91-31.42-15.88-33.04h0Z"/>
          <path class="cls-2" d="M77.21,43.8l21.65-21.81C95,17.87,77.66.31,51.22,0c-5.43-.06-28.03-.32-41.86,16.36C6.92,19.32-.75,28.57.06,42.03c.81,13.37,9.42,21.77,11.55,23.74.43-3.19,2.78-18.13,16.04-27.91,2.73-2.01,10.89-7.85,22.62-7.54,15.76.42,25.38,11.6,26.94,13.47h0Z"/>
        </g>
      </g>
      <g>
        <path class="cls-1" d="M17.5,181.57c-1.84-1.37-2.83-3.32-2.97-5.86h7.31c.07.86.33,1.49.77,1.89.44.4,1.01.6,1.71.6.63,0,1.15-.16,1.56-.47.41-.32.61-.75.61-1.31,0-.72-.34-1.28-1.01-1.68-.68-.4-1.77-.84-3.29-1.33-1.61-.54-2.91-1.06-3.9-1.56-.99-.5-1.85-1.24-2.59-2.21-.73-.97-1.1-2.23-1.1-3.8s.4-2.95,1.19-4.08c.79-1.13,1.89-1.99,3.29-2.57,1.4-.58,2.99-.88,4.76-.88,2.87,0,5.16.67,6.88,2.01,1.71,1.34,2.63,3.23,2.75,5.65h-7.46c-.02-.75-.25-1.31-.68-1.68-.43-.37-.99-.56-1.66-.56-.51,0-.93.15-1.26.46-.33.3-.49.73-.49,1.29,0,.47.18.87.54,1.21.36.34.81.63,1.35.88s1.33.55,2.38.93c1.56.54,2.85,1.07,3.87,1.59,1.01.52,1.89,1.26,2.62,2.21.73.94,1.1,2.14,1.1,3.59s-.37,2.79-1.1,3.96c-.74,1.17-1.8,2.09-3.19,2.77s-3.03,1.01-4.92,1.01c-2.87,0-5.23-.68-7.07-2.05Z"/>
        <path class="cls-1" d="M52.57,179.34h-8.75l-1.33,4.03h-7.21l9-24.67h7.91l8.96,24.67h-7.25l-1.33-4.03ZM50.86,174.09l-2.66-7.98-2.62,7.98h5.29Z"/>
        <path class="cls-1" d="M65.63,181.57c-1.84-1.37-2.83-3.32-2.98-5.86h7.32c.07.86.33,1.49.77,1.89.44.4,1.02.6,1.71.6.63,0,1.15-.16,1.56-.47.41-.32.61-.75.61-1.31,0-.72-.34-1.28-1.01-1.68s-1.77-.84-3.29-1.33c-1.61-.54-2.91-1.06-3.9-1.56-.99-.5-1.86-1.24-2.59-2.21-.74-.97-1.1-2.23-1.1-3.8s.4-2.95,1.19-4.08,1.89-1.99,3.29-2.57c1.4-.58,2.99-.88,4.76-.88,2.87,0,5.16.67,6.88,2.01,1.71,1.34,2.63,3.23,2.75,5.65h-7.46c-.02-.75-.25-1.31-.68-1.68-.43-.37-.99-.56-1.66-.56-.51,0-.93.15-1.26.46-.33.3-.49.73-.49,1.29,0,.47.18.87.54,1.21.36.34.81.63,1.35.88.54.25,1.33.55,2.38.93,1.56.54,2.85,1.07,3.87,1.59,1.02.52,1.89,1.26,2.62,2.21.74.94,1.1,2.14,1.1,3.59s-.37,2.79-1.1,3.96c-.73,1.17-1.8,2.09-3.18,2.77-1.39.68-3.03,1.01-4.92,1.01-2.87,0-5.23-.68-7.07-2.05Z"/>
        <path class="cls-2" d="M44.01,190.79l-3.72,7.21v3.36h-2.96v-3.36l-3.72-7.21h3.36l1.86,4.08,1.86-4.08h3.31Z"/>
        <path class="cls-2" d="M51.6,199.64h-3.75l-.57,1.72h-3.09l3.86-10.58h3.39l3.84,10.58h-3.1l-.57-1.72ZM50.87,197.39l-1.14-3.42-1.12,3.42h2.26Z"/>
        <path class="cls-2" d="M64.15,196.07c-.29.53-.74.95-1.33,1.26-.6.32-1.32.47-2.18.47h-1.46v3.57h-2.94v-10.58h4.4c.85,0,1.57.15,2.17.45.6.3,1.04.71,1.34,1.25s.45,1.14.45,1.83c0,.64-.15,1.22-.44,1.75ZM61.59,194.32c0-.77-.42-1.16-1.25-1.16h-1.17v2.29h1.17c.83,0,1.25-.38,1.25-1.14Z"/>
        <path class="cls-2" d="M68.72,190.79v10.58h-2.94v-10.58h2.94Z"/>
      </g>
    </g>
  </g>
</svg>